<svg width="32" height="32" viewBox="0 0 32 32" fill="none" xmlns="http://www.w3.org/2000/svg">
<rect width="32" height="32" rx="10" fill="#FF7438"/>
<path d="M23.51 9.85L17.57 6.42C16.6 5.86 15.4 5.86 14.42 6.42L8.49001 9.85C7.52001 10.41 6.92001 11.45 6.92001 12.58V19.42C6.92001 20.54 7.52001 21.58 8.49001 22.15L14.43 25.58C15.4 26.14 16.6 26.14 17.58 25.58L23.52 22.15C24.49 21.59 25.09 20.55 25.09 19.42V12.58C25.08 11.45 24.48 10.42 23.51 9.85ZM16 11.34C17.29 11.34 18.33 12.38 18.33 13.67C18.33 14.96 17.29 16 16 16C14.71 16 13.67 14.96 13.67 13.67C13.67 12.39 14.71 11.34 16 11.34ZM18.68 20.66H13.32C12.51 20.66 12.04 19.76 12.49 19.09C13.17 18.08 14.49 17.4 16 17.4C17.51 17.4 18.83 18.08 19.51 19.09C19.96 19.75 19.48 20.66 18.68 20.66Z" fill="white"/>
</svg>
