<svg width="32" height="32" viewBox="0 0 32 32" fill="none" xmlns="http://www.w3.org/2000/svg">
<rect width="32" height="32" rx="10" fill="#E8E8E8"/>
<path d="M15 22V25C15 25.55 14.55 26 14 26C13.45 26 13 25.55 13 25V22H15Z" fill="#585858"/>
<path d="M19 22V25C19 25.55 18.55 26 18 26C17.45 26 17 25.55 17 25V22H19Z" fill="#585858"/>
<path d="M21 15V20C21 21.1 20.1 22 19 22H13C11.9 22 11 21.1 11 20V15C11 13.9 11.9 13 13 13H19C20.1 13 21 13.9 21 15Z" fill="#585858"/>
<path d="M9 15V19C9 19.55 8.55 20 8 20C7.45 20 7 19.55 7 19V15C7 14.45 7.45 14 8 14C8.55 14 9 14.45 9 15Z" fill="#585858"/>
<path d="M25 15V19C25 19.55 24.55 20 24 20C23.45 20 23 19.55 23 19V15C23 14.45 23.45 14 24 14C24.55 14 25 14.45 25 15Z" fill="#585858"/>
<path d="M13.6 11.6H18.4C19.28 11.6 20 10.88 20 10C20 7.79 18.21 6 16 6C13.79 6 12 7.79 12 10C12 10.88 12.72 11.6 13.6 11.6Z" fill="#585858"/>
</svg>
