<svg width="32" height="32" viewBox="0 0 32 32" fill="none" xmlns="http://www.w3.org/2000/svg">
<rect width="32" height="32" rx="10" fill="#E8E8E8"/>
<path d="M14.42 17.42H17.26L17.58 14.58H14.74L14.42 17.42Z" fill="#585858"/>
<path d="M20.19 6H11.81C8.17 6 6 8.17 6 11.81V20.18C6 23.83 8.17 26 11.81 26H20.18C23.82 26 25.99 23.83 25.99 20.19V11.81C26 8.17 23.83 6 20.19 6ZM22.82 14.58H19.05L18.73 17.43H22.1C22.5 17.43 22.83 17.76 22.83 18.16C22.83 18.56 22.5 18.89 22.1 18.89H18.57L18.16 22.55C18.12 22.92 17.8 23.2 17.43 23.2C17.4 23.2 17.38 23.2 17.35 23.2C16.95 23.16 16.66 22.79 16.7 22.39L17.09 18.89H14.25L13.84 22.55C13.8 22.92 13.48 23.2 13.11 23.2C13.08 23.2 13.06 23.2 13.03 23.2C12.63 23.16 12.34 22.79 12.38 22.39L12.77 18.89H9.18C8.78 18.89 8.45 18.56 8.45 18.16C8.45 17.76 8.78 17.43 9.18 17.43H12.95L13.27 14.58H9.9C9.5 14.58 9.17 14.25 9.17 13.85C9.17 13.45 9.5 13.12 9.9 13.12H13.43L13.84 9.46C13.88 9.06 14.25 8.77 14.65 8.81C15.05 8.85 15.34 9.22 15.3 9.62L14.91 13.12H17.75L18.16 9.46C18.21 9.06 18.57 8.77 18.97 8.81C19.37 8.85 19.66 9.22 19.62 9.62L19.23 13.12H22.84C23.24 13.12 23.57 13.45 23.57 13.85C23.57 14.25 23.22 14.58 22.82 14.58Z" fill="#585858"/>
</svg>
