<svg width="20" height="21" viewBox="0 0 20 21" fill="none" xmlns="http://www.w3.org/2000/svg">
<path d="M12.7167 19.0417H7.28332C3.19165 19.0417 1.44165 17.2917 1.44165 13.2V13.0917C1.44165 9.39167 2.89998 7.60833 6.16665 7.3C6.49998 7.275 6.81665 7.525 6.84998 7.86667C6.88332 8.20833 6.63332 8.51667 6.28332 8.55C3.66665 8.79167 2.69165 10.025 2.69165 13.1V13.2083C2.69165 16.6 3.89165 17.8 7.28332 17.8H12.7167C16.1083 17.8 17.3083 16.6 17.3083 13.2083V13.1C17.3083 10.0083 16.3167 8.775 13.65 8.55C13.3083 8.51667 13.05 8.21667 13.0833 7.875C13.1167 7.53333 13.4083 7.275 13.7583 7.30833C17.075 7.59167 18.5583 9.38333 18.5583 13.1083V13.2167C18.5583 17.2917 16.8083 19.0417 12.7167 19.0417Z" fill="#6C6C6C"/>
<path d="M10 13.625C9.65833 13.625 9.375 13.3417 9.375 13V3.51666C9.375 3.175 9.65833 2.89166 10 2.89166C10.3417 2.89166 10.625 3.175 10.625 3.51666V13C10.625 13.3417 10.3417 13.625 10 13.625Z" fill="#6C6C6C"/>
<path d="M12.7916 5.99997C12.6333 5.99997 12.475 5.94164 12.35 5.81664L9.99997 3.46664L7.64997 5.81664C7.40831 6.0583 7.0083 6.0583 6.76664 5.81664C6.52497 5.57497 6.52497 5.17497 6.76664 4.9333L9.5583 2.14164C9.79997 1.89997 10.2 1.89997 10.4416 2.14164L13.2333 4.9333C13.475 5.17497 13.475 5.57497 13.2333 5.81664C13.1166 5.94164 12.95 5.99997 12.7916 5.99997Z" fill="#6C6C6C"/>
</svg>
