<svg width="32" height="32" viewBox="0 0 32 32" fill="none" xmlns="http://www.w3.org/2000/svg">
<rect width="32" height="32" rx="10" fill="#E8E8E8"/>
<path fill-rule="evenodd" clip-rule="evenodd" d="M23.1 23.16C23.69 22.26 23.91 21.8 24.36 20.79C21.04 19.53 20.51 14.8 23.79 12.99C22.79 11.73 21.38 11 20.05 11C19.09 11 18.43 11.25 17.84 11.48C17.34 11.67 16.89 11.84 16.33 11.84C15.73 11.84 15.2 11.65 14.64 11.45C14.03 11.23 13.39 11 12.59 11C11.1 11 9.51001 11.91 8.50001 13.47C7.08001 15.67 7.33001 19.79 9.62001 23.31C10.44 24.57 11.54 25.98 12.97 26C13.57 26.01 13.96 25.83 14.39 25.64C14.88 25.42 15.41 25.18 16.34 25.18C17.27 25.17 17.79 25.42 18.28 25.64C18.7 25.83 19.08 26.01 19.67 26C21.12 25.98 22.28 24.42 23.1 23.16Z" fill="#585858"/>
<path fill-rule="evenodd" clip-rule="evenodd" d="M19.84 6C20 7.1 19.55 8.19001 18.96 8.95001C18.33 9.77001 17.23 10.41 16.17 10.37C15.98 9.31 16.47 8.21999 17.07 7.48999C17.74 6.68999 18.87 6.07 19.84 6Z" fill="#585858"/>
</svg>
