<svg width="32" height="32" viewBox="0 0 32 32" fill="none" xmlns="http://www.w3.org/2000/svg">
<rect width="32" height="32" rx="10" fill="#FF7438"/>
<path d="M23.12 18.94L23.44 19.59C23.6 19.91 24.01 20.21 24.35 20.27L24.78 20.34C26.09 20.56 26.39 21.52 25.46 22.46L25.06 22.86C24.79 23.13 24.65 23.65 24.73 24.03L24.78 24.27C25.14 25.85 24.3 26.46 22.93 25.63L22.64 25.45C22.29 25.24 21.71 25.24 21.36 25.45L21.07 25.63C19.69 26.46 18.86 25.85 19.22 24.27L19.27 24.03C19.35 23.66 19.21 23.13 18.94 22.86L18.54 22.46C17.61 21.51 17.91 20.56 19.22 20.34L19.65 20.27C20 20.21 20.4 19.91 20.56 19.59L20.88 18.94C21.5 17.69 22.5 17.69 23.12 18.94Z" fill="white"/>
<path d="M20.19 6H11.81C8.17 6 6 8.17 6 11.81V20.19C6 23.83 8.17 26 11.81 26H17.09C17.44 26 17.69 25.64 17.65 25.29C17.61 24.91 17.63 24.46 17.75 23.94C17.77 23.87 17.75 23.79 17.69 23.73L17.47 23.51C16.62 22.65 16.31 21.61 16.61 20.66C16.92 19.72 17.78 19.06 18.97 18.86L19.27 18.81L19.54 18.27C20.09 17.15 20.99 16.5 22 16.5C23.01 16.5 23.91 17.15 24.46 18.27L24.61 18.58C24.68 18.73 24.82 18.83 24.98 18.86C25.07 18.88 25.16 18.9 25.25 18.92C25.6 19.01 26 18.73 26 18.36V11.81C26 8.17 23.83 6 20.19 6ZM20.26 12.96L17.95 15.94C17.66 16.31 17.25 16.55 16.78 16.6C16.32 16.66 15.85 16.53 15.49 16.24L13.66 14.82C13.59 14.76 13.51 14.76 13.47 14.77C13.43 14.77 13.36 14.79 13.3 14.87L10.92 17.96C10.77 18.15 10.55 18.25 10.32 18.25C10.16 18.25 10 18.2 9.86 18.09C9.53 17.84 9.47 17.37 9.72 17.04L12.1 13.95C12.39 13.58 12.8 13.34 13.27 13.28C13.74 13.22 14.2 13.35 14.57 13.64L16.4 15.08C16.47 15.14 16.54 15.13 16.59 15.13C16.63 15.13 16.7 15.11 16.76 15.03L19.07 12.05C19.32 11.72 19.79 11.66 20.12 11.92C20.46 12.17 20.51 12.64 20.26 12.96Z" fill="white"/>
</svg>
