<svg width="32" height="32" viewBox="0 0 32 32" fill="none" xmlns="http://www.w3.org/2000/svg">
<rect width="32" height="32" rx="10" fill="#E8E8E8"/>
<path d="M24.97 14.37V17.56C24.97 19.88 23.09 21.76 20.77 21.76H17.21C16.66 21.76 16.21 22.2 16.21 22.76V23.58C16.21 24.13 16.66 24.58 17.21 24.58H19.47C19.86 24.58 20.18 24.89 20.18 25.29C20.18 25.68 19.86 26 19.47 26H11.53C11.14 26 10.82 25.68 10.82 25.29C10.82 24.89 11.14 24.58 11.53 24.58H13.79C14.34 24.58 14.79 24.13 14.79 23.58V22.76C14.79 22.2 14.34 21.76 13.79 21.76H10.19C7.88 21.76 6 19.88 6 17.56V11.19C6 8.88 7.88 7 10.19 7H14.5C15.05 7 15.5 7.45 15.5 8V10.15C15.5 12.08 16.79 13.37 18.71 13.37H23.97C24.52 13.37 24.97 13.82 24.97 14.37Z" fill="#585858"/>
<path d="M25.99 6.36L24.86 7.15V6.73C24.86 5.78 24.09 5.02 23.15 5.02H18.87C17.84 5.01 17 5.85 17 6.88V10.16C17 11.02 17.43 11.87 18.71 11.87H23.14C24.09 11.87 24.85 11.1 24.85 10.16V9.73L25.98 10.52C26.55 10.91 27 10.67 27 9.99V6.89C27 6.21 26.55 5.98 25.99 6.36Z" fill="#585858"/>
</svg>
