<svg width="32" height="32" viewBox="0 0 32 32" fill="none" xmlns="http://www.w3.org/2000/svg">
<rect width="32" height="32" rx="10" fill="#FF7438"/>
<path d="M20.19 6H11.81C8.17 6 6 8.17 6 11.81V20.18C6 23.83 8.17 26 11.81 26H20.18C23.82 26 25.99 23.83 25.99 20.19V11.81C26 8.17 23.83 6 20.19 6ZM18.79 20.6C18.64 20.79 18.42 20.89 18.2 20.89C18.04 20.89 17.88 20.84 17.74 20.73C16.68 19.91 15.31 19.91 14.25 20.73C13.92 20.98 13.45 20.92 13.2 20.6C12.95 20.27 13.01 19.8 13.33 19.55C14.92 18.32 17.06 18.32 18.65 19.55C18.99 19.8 19.05 20.27 18.79 20.6ZM21 17.51C20.85 17.7 20.63 17.8 20.41 17.8C20.25 17.8 20.09 17.75 19.95 17.64C17.55 15.79 14.46 15.79 12.06 17.64C11.73 17.9 11.26 17.84 11 17.51C10.74 17.18 10.81 16.71 11.13 16.46C14.08 14.18 17.9 14.18 20.85 16.46C21.19 16.71 21.25 17.18 21 17.51ZM22.59 14.42C22.44 14.61 22.22 14.71 22 14.71C21.84 14.71 21.68 14.66 21.54 14.55C18.17 11.95 13.82 11.95 10.46 14.55C10.13 14.8 9.66 14.74 9.41 14.42C9.16 14.09 9.22 13.62 9.54 13.37C13.46 10.34 18.53 10.34 22.46 13.37C22.79 13.62 22.85 14.09 22.59 14.42Z" fill="white"/>
</svg>
