<svg width="32" height="32" viewBox="0 0 32 32" fill="none" xmlns="http://www.w3.org/2000/svg">
<rect width="32" height="32" rx="10" fill="#E8E8E8"/>
<path d="M19.59 5.75C16.62 5.75 14.21 8.16 14.21 11.13C14.21 14.1 16.62 16.51 19.59 16.51C22.56 16.51 24.97 14.1 24.97 11.13C24.97 8.16 22.56 5.75 19.59 5.75Z" fill="#585858"/>
<path d="M10.36 17.03C8.53 17.03 7.03 18.52 7.03 20.36C7.03 22.2 8.52 23.69 10.36 23.69C12.19 23.69 13.69 22.2 13.69 20.36C13.69 18.52 12.19 17.03 10.36 17.03Z" fill="#585858"/>
<path d="M20.62 20.62C19.07 20.62 17.81 21.88 17.81 23.43C17.81 24.98 19.07 26.24 20.62 26.24C22.17 26.24 23.43 24.98 23.43 23.43C23.43 21.88 22.17 20.62 20.62 20.62Z" fill="#585858"/>
</svg>
