<svg width="32" height="32" viewBox="0 0 32 32" fill="none" xmlns="http://www.w3.org/2000/svg">
<rect width="32" height="32" rx="10" fill="#E8E8E8"/>
<path d="M25.15 10.17C24.74 9.95 23.88 9.72 22.71 10.54L21.24 11.58C21.13 8.47 19.78 7.25 16.5 7.25H10.5C7.08 7.25 5.75 8.58 5.75 12V20C5.75 22.3 7 24.75 10.5 24.75H16.5C19.78 24.75 21.13 23.53 21.24 20.42L22.71 21.46C23.33 21.9 23.87 22.04 24.3 22.04C24.67 22.04 24.96 21.93 25.15 21.83C25.56 21.62 26.25 21.05 26.25 19.62V12.38C26.25 10.95 25.56 10.38 25.15 10.17ZM15 15.38C13.97 15.38 13.12 14.54 13.12 13.5C13.12 12.46 13.97 11.62 15 11.62C16.03 11.62 16.88 12.46 16.88 13.5C16.88 14.54 16.03 15.38 15 15.38Z" fill="#585858"/>
</svg>
