<svg width="32" height="32" viewBox="0 0 32 32" fill="none" xmlns="http://www.w3.org/2000/svg">
<rect width="32" height="32" rx="10" fill="#E8E8E8"/>
<path d="M11.65 24.91C11.62 24.91 11.58 24.93 11.55 24.93C9.61 23.97 8.03 22.38 7.06 20.44C7.06 20.41 7.08 20.37 7.08 20.34C8.3 20.7 9.56 20.97 10.81 21.18C11.03 22.44 11.29 23.69 11.65 24.91Z" fill="#585858"/>
<path d="M24.94 20.45C23.95 22.44 22.3 24.05 20.29 25.02C20.67 23.75 20.99 22.47 21.2 21.18C22.46 20.97 23.7 20.7 24.92 20.34C24.91 20.38 24.94 20.42 24.94 20.45Z" fill="#585858"/>
<path d="M25.02 11.71C23.76 11.33 22.49 11.02 21.2 10.8C20.99 9.51001 20.68 8.23001 20.29 6.98001C22.36 7.97001 24.03 9.64001 25.02 11.71Z" fill="#585858"/>
<path d="M11.65 7.09C11.29 8.31 11.03 9.55 10.82 10.81C9.53001 11.01 8.25001 11.33 6.98001 11.71C7.95001 9.7 9.56001 8.05 11.55 7.06C11.58 7.06 11.62 7.09 11.65 7.09Z" fill="#585858"/>
<path d="M19.49 10.59C17.17 10.33 14.83 10.33 12.51 10.59C12.76 9.22 13.08 7.85 13.53 6.53C13.55 6.45 13.54 6.39 13.55 6.31C14.34 6.12 15.15 6 16 6C16.84 6 17.66 6.12 18.44 6.31C18.45 6.39 18.45 6.45 18.47 6.53C18.92 7.86 19.24 9.22 19.49 10.59Z" fill="#585858"/>
<path d="M10.59 19.49C9.21 19.24 7.85 18.92 6.53 18.47C6.45 18.45 6.39 18.46 6.31 18.45C6.12 17.66 6 16.85 6 16C6 15.16 6.12 14.34 6.31 13.56C6.39 13.55 6.45 13.55 6.53 13.53C7.86 13.09 9.21 12.76 10.59 12.51C10.34 14.83 10.34 17.17 10.59 19.49Z" fill="#585858"/>
<path d="M26 16C26 16.85 25.88 17.66 25.69 18.45C25.61 18.46 25.55 18.45 25.47 18.47C24.14 18.91 22.78 19.24 21.41 19.49C21.67 17.17 21.67 14.83 21.41 12.51C22.78 12.76 24.15 13.08 25.47 13.53C25.55 13.55 25.61 13.56 25.69 13.56C25.88 14.35 26 15.16 26 16Z" fill="#585858"/>
<path d="M19.49 21.41C19.24 22.79 18.92 24.15 18.47 25.47C18.45 25.55 18.45 25.61 18.44 25.69C17.66 25.88 16.84 26 16 26C15.15 26 14.34 25.88 13.55 25.69C13.54 25.61 13.55 25.55 13.53 25.47C13.09 24.14 12.76 22.79 12.51 21.41C13.67 21.54 14.83 21.63 16 21.63C17.17 21.63 18.34 21.54 19.49 21.41Z" fill="#585858"/>
<path d="M19.7633 19.7633C17.2622 20.0789 14.7378 20.0789 12.2367 19.7633C11.9211 17.2622 11.9211 14.7378 12.2367 12.2367C14.7378 11.9211 17.2622 11.9211 19.7633 12.2367C20.0789 14.7378 20.0789 17.2622 19.7633 19.7633Z" fill="#585858"/>
</svg>
